Coordinates
version=1
nRows=7
nColumns=33
inDegrees=yes

Units are S.I. units (second, meters, Newtons, ...)
Angles are in degrees.

endheader
time	ground_thorax_rot_x	ground_thorax_rot_y	ground_thorax_rot_z	ground_thorax_tx	ground_thorax_ty	ground_thorax_tz	clav_prot_r	clav_elev_r	scapula_abduction_r	scapula_elevation_r	scapula_upward_rot_r	scapula_winging_r	shoulder_elv_r	plane_of_elev_r	axial_rot_r	elbow_flexion_r	pro_sup_r	wrist_flex_r	wrist_dev_r	clav_prot_l	clav_elev_l	scapula_abduction_l	scapula_elevation_l	scapula_upward_rot_l	scapula_winging_l	shoulder_elv_l	plane_of_elev_l	axial_rot_l	elbow_flexion_l	pro_sup_l	wrist_flex_l	wrist_dev_l
      4.30000000	    -40.02281052	      4.85195749	     -3.78828068	     24.58117149	    792.15239957	    -53.93907994	     17.24147724	    -45.00000000	     45.00000000	    -45.00000000	    -10.45366155	  -2248.32135870	  -2449.97597179	     20.20688678	    179.99999979	   1445.39567609	    192.67576863	     24.07403316	     14.48128838	     15.29277439	     27.83539528	    -39.56198665	    -45.00000000	    -45.00000000	  -2090.24710310	  -1342.52146583	     20.38393818	   -179.99999979	   3229.53179813	     53.20385710	      1.72665536	     -4.01326782
      4.31000000	    -39.18058523	    -14.09222877	     18.56145233	     21.44126565	    792.38876659	    -53.84775486	     23.83070266	    -45.00000000	     35.26698050	    -45.00000000	    -45.00000000	  -2247.28649082	  -2446.18733818	     22.43958263	    179.99999979	   1445.02367196	    208.31632375	     25.34281182	     13.83884857	      6.75896799	     27.63730129	    -30.76648946	    -45.00000000	    -45.00000000	  -2087.78169398	  -1345.03293239	     18.26627051	   -179.99999979	   3239.78232327	    171.27790420	     10.30883084	    -13.67556831
      4.32000000	    -39.55296122	    -13.24396826	     17.78958321	     18.25508735	    792.67701928	    -53.75418253	     23.64428490	    -45.00000000	     34.69539761	    -45.00000000	    -45.00000000	  -2246.98040621	  -2446.01715752	     22.36281864	    179.99999979	   1445.21785950	    206.03222440	     25.17720038	     13.86399589	      7.65919028	     27.53904880	    -31.19191575	    -45.00000000	    -45.00000000	  -2087.69604451	  -1344.93967847	     18.18757061	   -179.99999979	   3239.72178635	    171.97976556	     10.07491032	    -13.71961700
      4.33000000	    -39.83121052	    -12.73693295	     17.31761238	     15.02646717	    793.03277287	    -53.65766822	     23.79031395	    -45.00000000	     34.63954432	    -45.00000000	    -45.00000000	  -2247.03904069	  -2446.16947872	     22.26068205	    179.99999979	   1445.35475119	    204.82669466	     25.13485463	     13.87283729	      7.82475181	     27.39740156	    -31.32435651	    -45.00000000	    -45.00000000	  -2087.62177141	  -1344.75786879	     18.03549836	   -179.99999979	   3239.68507300	    172.43140046	      9.91385665	    -13.77820583
      4.34000000	    -39.89003845	    -12.49182091	     17.06119425	     11.78997186	    793.45722062	    -53.54974417	     23.65690950	    -45.00000000	     34.75056505	    -45.00000000	    -45.00000000	  -2247.39350242	  -2446.16386830	     22.32553318	    179.99999979	   1445.39022624	    204.12373175	     25.16635136	     13.92706925	      7.40492073	     27.47905517	    -31.02720908	    -45.00000000	    -45.00000000	  -2087.42405309	  -1344.65124329	     18.29424626	   -179.99999979	   3239.77401924	    172.93315043	      9.98197068	    -13.71155760
      4.35000000	    -39.98313995	    -12.26795391	     16.78981140	      8.52719893	    793.94991551	    -53.43483832	     23.61155214	    -45.00000000	     34.74729784	    -45.00000000	    -45.00000000	  -2247.56146023	  -2446.08481080	     22.35232141	    179.99999979	   1445.52629487	    203.69329120	     25.14915954	     14.00031316	      7.14597714	     27.58909974	    -30.95009929	    -45.00000000	    -45.00000000	  -2087.24017192	  -1344.75372326	     18.30432520	   -179.99999979	   3239.81241366	    173.44743887	     10.01791081	    -13.72589110
      4.36000000	    -40.15243095	    -11.86160321	     16.46958803	      5.25961119	    794.50753993	    -53.30911709	     23.63166995	    -45.00000000	     34.69971184	    -45.00000000	    -45.00000000	  -2247.76914142	  -2446.12043113	     22.29303000	    179.99999979	   1445.42863757	    203.41899703	     25.14299933	     14.05348104	      7.09287352	     27.57811936	    -31.01799559	    -45.00000000	    -45.00000000	  -2087.13103948	  -1344.68017918	     18.19008558	   -179.99999979	   3239.78026487	    173.91167910	      9.90917899	    -13.81442173
